<svg width="67" height="50" viewBox="0 0 67 50" fill="none" xmlns="http://www.w3.org/2000/svg">
<path d="M37.5435 48.5584C34.4791 50.0748 32.4425 50.319 29.215 48.9957C28.3734 48.6507 27.2642 48.3085 26.3968 48.699C25.0901 49.2896 22.9175 50.0989 21.814 49.991C20.5516 49.8675 19.3593 49.6957 18.19 49.2797C17.294 48.9602 16.285 48.3525 15.2889 48.6053C13.1935 49.1363 10.5829 50.0251 8.54763 49.6133L6.79864 49.2598C5.62071 49.0213 4.75194 48.469 3.86742 47.7562C1.9524 46.2115 0.725814 44.272 0.315043 41.7689C0.213424 41.1484 0.157605 40.2965 0.24348 39.6434L0.532594 37.4612C0.632782 36.7073 1.47722 35.8525 1.01636 34.8431C0.259224 33.1847 -0.177309 31.8941 0.0688667 30.1208C0.256361 28.762 0.552632 27.5381 1.29832 26.3554C1.54163 25.9707 1.80355 25.3176 1.80355 24.9058C1.17666 23.5797 0.515419 22.4084 0.247774 20.9957C0.0388103 19.8981 -0.0399088 18.5806 0.297868 17.5384L1.24679 14.6122L0.571238 12.1488L0.37945 10.7674C0.295005 10.1625 0.237755 9.83879 0.353687 9.26377C0.628488 7.90501 0.904721 6.57465 1.59172 5.37065C2.23436 4.24475 2.94569 3.27786 4.03488 2.5211C4.81062 1.98157 5.6522 1.42501 6.56677 1.08993C8.20843 0.489351 10.1807 0.361568 11.9025 0.651209C13.9163 0.990544 15.3805 2.24707 16.9262 1.40797C19.9319 -0.223393 23.3382 -0.239011 26.3095 1.35827C28.0814 2.31097 29.4783 0.4212 32.1104 0.182672L33.4157 0.0634082C34.545 -0.038818 36.5344 0.659728 37.7367 1.25179C38.5411 1.64934 39.2295 1.8836 40.1083 1.35685C40.8726 0.898256 41.7614 0.631332 42.6531 0.365828C47.5222 -1.07812 49.6333 2.24991 50.9 1.78848L53.9586 0.673926C55.1923 0.223847 56.5677 0.442497 57.8816 0.540464C59.4417 0.655469 62.3457 2.12497 63.5108 3.5178L64.8018 5.06114C65.2655 5.61486 65.4487 6.30915 65.7278 6.9722C66.7082 9.30069 66.7225 11.9302 66.0169 14.3197C66.9343 17.2729 67.4911 19.1513 66.3876 22.069L65.4344 24.5864C65.5074 24.9882 65.7392 25.6697 65.9325 26.0445C67.2664 28.6172 67.3379 31.4625 66.2015 34.1147C65.7707 35.1199 66.1428 36.1933 66.2616 37.2099L66.4162 38.536C66.8041 41.8683 65.0308 45.8579 62.0924 47.6284C60.3835 48.6578 58.4599 49.0213 56.5005 49.3265C55.5387 49.4756 53.5048 49.0738 52.4987 48.645C50.94 47.9805 50.3861 47.6412 48.9935 48.5286C47.2445 49.6417 44.7498 49.7752 42.696 49.389C40.5377 48.9829 39.3698 47.654 37.5435 48.557V48.5584Z" fill="white"/>
</svg>
