<svg viewBox="0 0 244 75" fill="none" xmlns="http://www.w3.org/2000/svg">
<path d="M240.501 43.2998C238.801 43.2998 237.301 44.6998 237.301 46.3998C237.301 48.0998 238.701 49.4998 240.501 49.4998C242.301 49.4998 243.701 48.0998 243.701 46.3998C243.701 44.6998 242.301 43.2998 240.501 43.2998ZM240.501 48.9998C239.101 48.9998 237.901 47.7998 237.901 46.3998C237.901 44.9998 239.101 43.7998 240.501 43.7998C241.901 43.7998 243.101 44.8998 243.101 46.3998C243.101 47.8998 241.901 48.9998 240.501 48.9998ZM241.501 47.3998V47.0998C241.501 46.8998 241.501 46.7998 241.501 46.6998C241.501 46.6998 241.301 46.5998 241.201 46.4998C241.401 46.4998 241.501 46.2998 241.601 46.1998C241.601 46.0998 241.701 45.8998 241.701 45.6998C241.701 45.3998 241.701 45.1998 241.501 45.0998C241.301 44.8998 241.101 44.7998 240.801 44.7998H239.401V47.9998H240.101V46.7998H240.501C240.601 46.7998 240.701 46.7998 240.801 46.7998C240.801 46.7998 240.801 46.9998 240.801 47.0998V47.5998C240.801 47.5998 240.801 47.6998 240.801 47.7998C240.801 47.7998 240.801 47.8998 240.801 47.9998H241.501C241.501 47.9998 241.501 47.7998 241.401 47.6998C241.401 47.6998 241.401 47.4998 241.401 47.2998L241.501 47.3998ZM240.801 46.1998C240.801 46.1998 240.701 46.1998 240.501 46.1998H240.001V45.3998H240.501C240.601 45.3998 240.701 45.3998 240.801 45.3998C240.801 45.3998 240.901 45.5998 240.901 45.6998C240.901 45.7998 240.901 45.9998 240.801 45.9998V46.1998Z" fill="#ffffff"/>
<path d="M138.8 24.3995C138.8 24.1995 138.8 23.8995 139 23.6995C139 23.5995 139.1 23.4995 139.1 23.4995C139.1 23.4995 139.2 23.2995 139.4 22.9995C140.3 21.2995 142.7 17.4995 145.1 16.2995C147.6 15.0995 151.1 16.1995 151 17.8995C151 18.4995 150 19.4995 149.1 20.1995C145.3 23.0995 144.1 23.8995 141.8 24.9995C139.4 26.0995 138.8 25.1995 138.8 24.4995V24.3995ZM84.4999 35.3995C85.0999 34.7995 86.0999 34.0995 87.4999 33.1995C89.4999 31.6995 90.7999 31.2995 93.0999 30.2995C114.1 21.2995 123.8 30.8995 131.6 33.3995C132.4 33.5995 134.4 34.0995 135.8 33.7995C137.2 33.4995 139 32.7995 139.1 32.1995C139.2 31.8995 139.3 31.1995 138.6 30.5995C134.9 27.3995 124.7 19.8995 111.4 20.5995C104.6 20.9995 93.9999 23.7995 85.5999 31.4995C85.5999 31.4995 83.4999 33.2995 83.1999 34.5995C82.9999 35.1995 83.4999 36.0995 84.3999 35.3995H84.4999ZM129.6 16.3995C131.6 14.4995 132.9 12.6995 136.2 8.79954C137 7.79954 137 6.99954 136.6 6.49954C135.8 4.79954 130.9 4.59954 128.8 6.59954C126.1 9.19954 125.5 16.0995 125.5 16.1995C125.5 16.4995 125.5 16.7995 125.7 16.9995C126.2 17.5995 127.3 18.4995 129.5 16.3995H129.6ZM92.8999 18.4995C93.2999 18.9995 93.9999 19.3995 94.4999 19.3995C95.1999 19.3995 96.3999 19.0995 96.1999 16.4995C95.8999 13.2995 95.3999 10.0995 93.4999 6.79954C91.5999 3.29954 86.6999 6.09954 86.4999 8.79954C86.4999 9.19954 86.4999 9.59954 86.5999 9.99954C87.3999 11.9995 91.2999 16.6995 92.7999 18.4995H92.8999ZM110.8 15.5995C111.6 15.7995 112.7 15.6995 113.2 14.4995C113.3 14.1995 113.3 14.1995 113.5 13.2995C113.9 11.2995 115.2 7.19954 115.4 3.39954C115.7 -0.400464 109.3 0.299537 108.7 2.99954C108.7 3.29954 108.7 3.59954 108.6 3.99954C108.4 6.59954 109.4 12.4995 109.8 14.5995C109.8 15.0995 110.3 15.4995 110.7 15.5995H110.8ZM79.9999 27.4995C80.7999 27.8995 81.6999 28.0995 82.1999 28.0995C82.8999 28.0995 84.1999 27.2995 83.4999 26.0995C83.4999 26.0995 83.1999 25.6995 82.7999 25.2995C81.2999 23.6995 79.1999 20.9995 76.0999 18.1995C74.1999 16.5995 72.1999 17.4995 71.2999 18.8995C70.5999 19.8995 70.3999 21.1995 71.2999 22.3995C72.6999 23.9995 77.6999 26.3995 79.9999 27.4995ZM41.7999 51.9995C39.8999 60.8995 36.4999 65.9995 33.7999 68.7995C29.8999 72.6995 26.0999 73.5995 22.9999 73.5995C20.1999 73.5995 17.2999 72.8995 15.5999 69.5995C15.2999 69.0995 15.0999 68.5995 14.8999 67.9995C14.2999 66.5995 13.9999 64.9995 13.8999 63.2995C13.7999 62.1995 13.7999 60.9995 13.8999 59.4995C13.8999 58.4995 14.0999 57.4995 14.1999 56.4995C12.5999 58.9995 10.6999 61.4995 8.79994 66.2995L7.99994 69.3995C7.49994 70.7995 5.99994 73.3995 1.49994 73.1995C1.29994 73.1995 0.799942 73.1995 0.799942 73.1995C0.799942 73.1995 0.299942 72.6995 0.399942 72.3995C0.499942 71.9995 0.699942 71.5995 0.799942 71.2995L9.39994 38.3995C10.7999 34.1995 14.5999 34.2995 16.4999 34.5995C16.6999 34.5995 16.8999 34.5995 16.9999 34.5995C16.9999 34.8995 16.5999 35.9995 16.5999 36.1995L12.5999 50.7995L12.1999 52.2995C14.1999 49.1995 16.2999 46.7995 18.3999 44.2995C18.9999 43.2995 19.6999 42.2995 20.4999 41.4995C20.5999 41.3995 20.6999 41.2995 20.7999 41.0995C21.4999 40.0995 22.2999 39.1995 23.0999 38.3995C26.3999 35.1995 29.7999 33.7995 33.4999 33.7995C36.9999 33.7995 39.8999 34.9995 41.3999 38.8995V39.0995C41.3999 39.2995 41.5999 39.4995 41.5999 39.6995C43.0999 43.4995 42.4999 48.2995 41.5999 51.8995L41.7999 51.9995ZM36.0999 41.0995C36.0999 40.7995 35.9999 40.5995 35.8999 40.3995C35.3999 39.2995 34.4999 38.7995 33.2999 38.6995C31.3999 38.4995 29.7999 39.4995 28.0999 41.4995C24.6999 45.4995 22.4999 52.7995 21.6999 55.7995C20.1999 61.3995 20.1999 64.0995 20.2999 65.4995C20.2999 66.0995 20.3999 66.6995 20.5999 67.0995C21.0999 68.0995 21.8999 68.6995 23.0999 68.7995C24.5999 68.8995 26.7999 68.1995 29.1999 64.8995C32.1999 60.6995 34.0999 54.0995 34.6999 51.8995C35.1999 49.8995 36.5999 44.2995 35.9999 40.9995L36.0999 41.0995ZM67.0999 47.4995C67.8999 49.4995 67.6999 52.5995 67.1999 54.8995C66.3999 58.9995 64.5999 63.6995 61.5999 67.2995C59.4999 69.7995 55.3999 73.6995 49.5999 73.6995C47.3999 73.6995 45.5999 72.8995 43.9999 70.8995C43.7999 70.5995 43.4999 70.2995 43.2999 69.9995C41.3999 66.7995 42.1999 61.7995 43.1999 57.7995C44.3999 53.0995 45.9999 48.4995 48.1999 44.6995C52.2999 37.4995 57.2999 34.9995 61.1999 33.9995L71.2999 31.2995C71.3999 31.2995 71.5999 31.2995 71.6999 31.2995C72.4999 33.0995 71.3999 37.4995 67.7999 39.2995L62.8999 40.7995C60.8999 41.3995 58.6999 42.0995 56.6999 43.7995C54.6999 45.3995 53.2999 47.6995 52.2999 49.5995C53.2999 48.4995 54.3999 47.3995 55.5999 46.5995C57.7999 44.9995 60.1999 44.0995 62.3999 44.0995C64.0999 44.0995 65.2999 44.7995 66.1999 46.0995C66.4999 46.4995 66.7999 47.0995 67.0999 47.6995V47.4995ZM59.7999 51.0995C59.7999 50.7995 59.6999 50.4995 59.4999 50.2995C59.2999 49.9995 58.8999 49.9995 58.3999 49.9995C57.1999 49.9995 55.7999 50.7995 54.1999 52.4995C51.1999 55.7995 49.6999 59.8995 49.0999 62.6995C48.6999 64.5995 48.5999 66.5995 48.9999 67.7995C48.9999 67.9995 49.0999 68.1995 49.1999 68.3995C49.5999 68.8995 50.1999 68.9995 50.7999 68.9995C52.4999 68.9995 54.7999 67.1995 56.2999 64.7995C57.7999 62.4995 59.0999 58.9995 59.5999 55.9995C59.7999 54.7995 60.0999 52.6995 59.7999 51.0995ZM235.7 50.8995C235 56.5995 230.6 61.3995 221.5 61.6995C221.5 61.9995 221.5 62.1995 221.5 62.4995C221.5 62.9995 220.7 65.5995 221.9 67.1995C222.8 68.3995 225 68.7995 228.6 67.5995C229.8 67.1995 230.7 66.7995 231.5 66.2995C231.5 66.2995 232 66.2995 232.2 66.2995C232.4 66.6995 232.2 67.7995 232 68.2995C230.6 72.6995 226 73.6995 224.5 73.8995C224.2 73.8995 224 73.8995 223.7 73.8995C220.9 73.9995 218.2 72.5995 216.6 70.5995C214.4 67.8995 214.8 63.7995 215.2 61.2995C216.1 54.2995 218.9 49.2995 222 46.2995C224.8 43.6995 227.2 43.0995 229.6 43.0995C231.2 43.0995 233.2 43.5995 234.6 45.2995C235.5 46.3995 236.2 47.9995 235.8 50.7995L235.7 50.8995ZM229.5 47.8995C229.3 47.6995 229 47.5995 228.6 47.5995C227.5 47.5995 225.8 48.0995 224.1 51.8995C223.3 53.6995 222.7 55.9995 222.2 57.9995C223.3 57.9995 224.6 57.6995 225.8 56.9995C227.7 55.9995 229.3 54.1995 229.7 51.0995C229.7 50.3995 230.1 48.8995 229.4 47.9995L229.5 47.8995ZM88.1999 69.9995L93.5999 44.0995C93.5999 43.6995 93.7999 43.5995 93.8999 43.3995H93.0999H92.2999H90.1999C87.3999 43.5995 86.5999 45.2995 86.3999 45.9995V46.2995L85.8999 48.3995C85.1999 51.8995 82.3999 57.7995 80.2999 60.9995C79.4999 62.0995 77.1999 66.3995 75.8999 66.3995C75.7999 66.3995 75.6999 66.3995 75.5999 66.3995C75.5999 65.8995 75.5999 65.2995 75.7999 64.6995L79.9999 45.2995C79.9999 44.8995 80.2999 43.8995 80.2999 43.5995C80.0999 43.5995 79.7999 43.5995 79.4999 43.5995C79.2999 43.5995 79.1999 43.5995 79.0999 43.5995C79.0999 43.5995 78.8999 43.5995 78.7999 43.5995C74.4999 43.3995 72.8999 45.4995 72.3999 46.9995L68.1999 66.8995C67.8999 68.0995 67.6999 69.9995 68.1999 71.3995C68.6999 72.7995 69.6999 73.9995 71.8999 73.9995C74.2999 73.9995 76.2999 72.6995 78.2999 70.5995C80.1999 68.4995 81.8999 65.4995 83.0999 63.1995L82.1999 67.3995C82.0999 68.3995 82.1999 70.0995 83.1999 71.3995C83.9999 72.3995 84.9999 73.3995 87.4999 73.3995C87.8999 73.3995 88.1999 73.3995 88.1999 73.2995C87.7999 72.8995 88.3999 70.2995 88.3999 70.2995L88.1999 69.9995ZM124.9 62.2995C124.8 62.7995 124 65.3995 125.3 66.9995C126.2 68.1995 128.4 68.5995 132.1 67.3995C133.3 66.9995 134.3 66.4995 135 66.0995H135.8C136 66.4995 135.6 67.5995 135.4 68.0995C133.8 72.4995 129.2 73.4995 127.7 73.6995C127.4 73.6995 127.1 73.6995 126.9 73.6995C124.8 73.6995 122.2 73.3995 120.4 71.0995C120.3 70.9995 119.9 70.3995 119.8 70.2995C117.7 67.4995 118.2 63.3995 118.5 60.9995C119.6 53.8995 122.5 48.8995 125.7 45.9995C128.5 43.2995 131 42.7995 133.4 42.7995C135 42.7995 137 43.2995 138.4 44.9995C139.3 46.0995 140 47.6995 139.5 50.4995C138.6 56.1995 134.2 61.0995 124.9 61.3995C124.9 61.6995 124.9 61.8995 124.8 62.1995L124.9 62.2995ZM125.9 57.7995C127 57.7995 128.3 57.4995 129.6 56.7995C131.6 55.7995 133 54.0995 133.5 50.8995C133.6 50.1995 134.1 48.5995 133.4 47.6995C133.2 47.4995 132.9 47.3995 132.5 47.3995C131.4 47.3995 129.7 47.8995 127.9 51.6995C127.1 53.4995 126.4 55.7995 125.9 57.7995ZM159.8 70.0995L164.5 45.0995C164.8 43.8995 164.9 43.7995 165 43.6995H164.2H163.1H162.1H161.2C158.5 43.8995 157.6 45.5995 157.4 46.2995V46.5995L157 48.6995C156.3 52.1995 153.7 57.9995 151.6 61.1995C150.9 62.2995 148.6 66.5995 147.3 66.5995C147.2 66.5995 147.1 66.5995 147 66.5995C147 66.0995 147 65.4995 147.1 64.8995L151 45.4995C151 45.0995 151.3 44.0995 151.3 43.7995C151.1 43.7995 150.9 43.7995 150.6 43.7995C150.4 43.7995 150.1 43.7995 149.8 43.7995C145.5 43.5995 144 45.7995 143.5 47.1995L139.7 67.0995C139.5 67.8995 139.4 69.0995 139.5 70.1995C139.5 72.0995 140.4 73.9995 143.3 74.1995C145.7 74.3995 147.8 72.8995 149.8 70.7995C151.7 68.6995 153.3 65.6995 154.4 63.3995L153.6 67.5995C153.5 68.5995 153.6 70.1995 154.6 71.5995C155.4 72.5995 156.5 73.5995 158.9 73.5995C159.3 73.5995 159.5 73.5995 159.6 73.4995C159.2 73.0995 159.8 70.4995 159.8 70.4995V70.0995ZM111.8 47.3995V47.7995C111.8 47.6995 111.8 47.4995 111.8 47.3995ZM118.9 44.1995C118.9 44.0995 118.9 43.9995 118.9 43.8995V43.4995H118.3H109.2C104.4 43.8995 102.4 46.4995 101.6 49.1995L101.2 50.6995C100.4 53.7995 98.7999 58.9995 97.9999 61.1995C96.8999 63.9995 95.7999 65.6995 94.9999 66.4995C94.8999 66.5995 94.6999 66.7995 94.3999 66.9995C94.1999 67.0995 93.9999 67.1995 93.8999 67.2995C92.5999 67.9995 91.3999 67.7995 90.6999 67.4995C90.4999 68.1995 90.2999 69.1995 90.4999 70.1995C90.4999 70.1995 90.4999 70.6995 90.5999 70.8995C90.8999 71.7995 91.5999 72.4995 91.6999 72.6995C92.4999 73.5995 94.7999 74.4995 97.1999 73.4995C98.0999 73.0995 98.3999 72.7995 98.7999 72.3995C100.7 70.6995 101.9 68.2995 102.8 66.3995C103.7 64.4995 105.7 59.1995 107.7 51.8995L108.1 50.2995C108.1 50.2995 108.1 50.2995 108.1 50.1995C108.4 49.2995 109.3 47.3995 111.9 47.4995V47.1995L107.5 67.7995C107.5 67.7995 107.3 68.6995 107.2 69.0995C107.2 69.8995 107.4 70.6995 108 71.4995C108.6 72.2995 109.5 73.0995 111.5 73.1995C112 73.1995 113.5 73.1995 113.5 73.1995C113.3 72.9995 113.4 71.9995 113.5 71.1995L118.9 44.1995ZM190.4 43.5995C190.4 43.5995 190 43.5995 189.7 43.5995C189.7 43.5995 189.3 43.5995 189 43.5995H186.9C184.1 43.7995 183.4 45.4995 183.2 46.1995L181.6 54.6995H174.5L176.3 45.0995C176.3 44.5995 176.6 43.5995 176.6 43.5995H176C176 43.5995 175.9 43.5995 175.8 43.5995C169.6 43.2995 169.3 48.0995 169.3 48.0995L164.7 72.2995C164.5 73.0995 164.2 73.3995 164.2 73.3995H167.9H168C170.4 73.0995 171.6 71.8995 172 69.9995L173.6 61.0995H180.8L178.8 71.5995C178.8 72.0995 178.5 72.9995 178.5 72.9995C178.5 72.9995 178.5 73.1995 178.2 73.3995C178.4 73.3995 179.7 73.3995 179.9 73.3995C184.3 73.5995 185.3 71.8995 185.8 70.5995L186 69.4995L190.8 43.6995L190.4 43.5995ZM149.8 35.1995C149.8 34.7995 149.8 34.3995 149.9 33.7995C149.9 33.7995 149.9 33.5995 149.9 33.4995C149.9 33.3995 149.8 33.2995 149.6 33.3995C149.4 33.3995 149.1 33.7995 148.6 34.5995C148.1 35.3995 147.9 36.2995 148.1 37.3995C148.1 37.6995 148.3 37.9995 148.4 38.3995C149.5 40.6995 151.2 41.1995 151.9 41.2995C152.2 41.2995 152.5 41.2995 152.9 41.2995C152.9 41.2995 153.3 41.2995 153.5 41.2995C153.9 41.2995 154.4 41.2995 155.1 41.0995C156 40.9995 157 40.6995 158 40.2995C159 39.8995 159.8 39.4995 160.7 38.8995C161.5 38.2995 162.2 37.5995 162.8 36.6995C163.4 35.8995 163.8 34.8995 164 33.6995C164 33.5995 164 33.2995 164 32.8995C164 32.4995 163.9 32.2995 163.6 32.1995C163.4 32.1995 162.8 32.1995 162.1 32.5995C161 33.1995 160.1 33.7995 159.2 34.2995C158.4 34.6995 157.4 35.1995 156.4 35.5995C155.4 36.0995 154.3 36.3995 153.2 36.5995C153 36.5995 152.7 36.5995 152.3 36.6995C151.9 36.6995 151.6 36.6995 151.2 36.6995C150.9 36.6995 150.5 36.4995 150.3 36.1995C150 35.9995 149.8 35.5995 149.8 35.0995V35.1995ZM211.3 46.3995C213.1 48.6995 214 52.2995 212.9 57.7995C210.8 68.0995 204.7 73.9995 197.9 73.5995C195.5 73.3995 193.6 72.2995 192.2 70.4995C190.4 68.1995 189.5 64.5995 190.7 59.0995C192.9 48.4995 199 42.7995 205.5 43.1995C208 43.3995 209.9 44.4995 211.3 46.2995V46.3995ZM205.8 47.9995C205.5 47.6995 205.1 47.4995 204.5 47.4995C202.2 47.2995 199.5 49.8995 197.5 61.1995C197.1 63.5995 196.4 67.1995 197.6 68.7995C197.9 69.1995 198.4 69.2995 198.9 69.2995C200.8 69.3995 203.7 67.7995 205.6 56.4995C206.1 53.4995 207 49.5995 205.6 47.8995L205.8 47.9995Z" fill="#ffffff"/>
<path d="M171.602 35.7996C170.902 35.0996 170.602 34.1996 170.602 33.1996C170.602 32.1996 170.902 31.2996 171.602 30.5996C172.302 29.8996 173.102 29.5996 174.102 29.5996C175.102 29.5996 176.102 30.0996 176.802 30.9996C177.102 31.3996 177.302 31.8996 177.402 32.2996H175.702C175.702 32.0996 175.502 31.8996 175.402 31.7996C175.102 31.4996 174.702 31.2996 174.202 31.2996C173.702 31.2996 173.302 31.4996 172.902 31.7996C172.602 32.1996 172.402 32.5996 172.402 33.1996C172.402 33.7996 172.602 34.2996 172.902 34.5996C173.202 34.9996 173.602 35.0996 174.202 35.0996C174.802 35.0996 175.202 34.8996 175.502 34.4996C175.602 34.2996 175.702 34.0996 175.802 33.8996H177.502C177.402 34.3996 177.202 34.8996 176.902 35.2996C176.302 36.1996 175.402 36.6996 174.202 36.6996C173.002 36.6996 172.302 36.3996 171.702 35.6996L171.602 35.7996Z" fill="#ffffff"/>
<path d="M182.203 32.6998V30.7998L183.503 29.7998H185.003V36.6998H183.303V31.8998L182.203 32.6998Z" fill="#ffffff"/>
<path d="M186.801 32.0996C186.801 31.3996 187.001 30.7996 187.501 30.2996C188.001 29.7996 188.701 29.5996 189.501 29.5996C190.301 29.5996 191.001 29.7996 191.501 30.2996C192.001 30.7996 192.201 31.3996 192.201 32.1996C192.201 32.9996 191.801 33.7996 191.101 34.7996L189.801 36.6996H188.001L189.301 34.6996L189.701 34.3996C189.701 34.3996 189.601 34.3996 189.501 34.3996C189.301 34.3996 189.101 34.3996 188.901 34.3996C188.301 34.3996 187.801 34.1996 187.401 33.6996C187.001 33.1996 186.801 32.6996 186.801 31.9996V32.0996ZM188.701 31.3996C188.501 31.5996 188.401 31.7996 188.401 32.0996C188.401 32.3996 188.401 32.5996 188.701 32.7996C188.901 32.9996 189.101 33.0996 189.501 33.0996C189.901 33.0996 190.101 33.0996 190.301 32.7996C190.501 32.5996 190.601 32.3996 190.601 32.0996C190.601 31.7996 190.601 31.5996 190.301 31.3996C190.101 31.1996 189.901 31.0996 189.501 31.0996C189.101 31.0996 188.901 31.0996 188.701 31.3996Z" fill="#ffffff"/>
<path d="M193.602 32.6998V30.7998L194.902 29.7998H196.402V36.6998H194.702V31.8998L193.602 32.6998Z" fill="#ffffff"/>
<path d="M198.102 34.5004H199.802C199.802 34.7004 199.902 34.8004 200.002 34.9004C200.202 35.2004 200.502 35.3004 200.902 35.3004C201.302 35.3004 201.402 35.3004 201.602 35.1004C201.802 34.9004 201.902 34.7004 201.902 34.5004C201.902 34.3004 201.902 34.1004 201.602 33.9004C201.402 33.7004 201.202 33.7004 200.902 33.7004H199.502V32.5004L200.902 31.5004H198.502V29.9004H203.202V31.5004L201.802 32.4004V32.6004C202.302 32.6004 202.802 32.8004 203.102 33.2004C203.502 33.6004 203.602 34.1004 203.602 34.6004C203.602 35.1004 203.402 35.9004 202.902 36.3004C202.402 36.8004 201.802 37.0004 200.902 37.0004C200.002 37.0004 199.102 36.6004 198.602 35.8004C198.402 35.5004 198.202 35.1004 198.202 34.6004L198.102 34.5004Z" fill="#ffffff"/>
<path d="M208.703 36.6998V29.7998H213.303V31.4998H210.403V36.6998H208.703Z" fill="#ffffff"/>
<path d="M215.602 35.8C214.902 35.1 214.602 34.2 214.602 33.2C214.602 32.2 214.902 31.3 215.602 30.6C216.302 29.9 217.102 29.5 218.102 29.5C219.102 29.5 219.902 29.9 220.602 30.6C221.302 31.3 221.602 32.2 221.602 33.2C221.602 34.2 221.302 35.1 220.602 35.8C219.902 36.5 219.102 36.9 218.102 36.9C217.102 36.9 216.302 36.5 215.602 35.8ZM216.802 31.8C216.502 32.2 216.302 32.6 216.302 33.2C216.302 33.8 216.502 34.3 216.802 34.6C217.102 35 217.502 35.1 218.102 35.1C218.702 35.1 219.002 34.9 219.402 34.6C219.702 34.2 219.902 33.8 219.902 33.2C219.902 32.6 219.702 32.1 219.402 31.8C219.102 31.4 218.702 31.3 218.102 31.3C217.502 31.3 217.202 31.5 216.802 31.8Z" fill="#ffffff"/>
<path d="M222.801 37.7998V34.9998H223.501L224.801 29.7998H227.901L229.201 34.9998H229.901V37.7998H228.301V36.5998H224.401V37.7998H222.801ZM225.101 34.9998H227.601L226.801 31.4998H226.001L225.201 34.9998H225.101Z" fill="#ffffff"/>
<path d="M230.801 36.6998L232.501 29.7998H235.501L237.201 36.6998H235.501L235.201 35.2998H232.801L232.501 36.6998H230.801ZM233.101 33.6998H234.801L234.301 31.3998H233.701L233.201 33.6998H233.101Z" fill="#ffffff"/>
</svg>
